<svg xmlns="http://www.w3.org/2000/svg" xmlns:xlink="http://www.w3.org/1999/xlink" width="61" height="61" viewBox="0 0 61 61"><defs><path id="xrwma" d="M791.23 2738.58a28.91 28.91 0 1 1 0-57.83 28.91 28.91 0 0 1 0 57.83zm0-54.22a25.3 25.3 0 1 0 0 50.6 25.3 25.3 0 0 0 0-50.6zm18.07 27.11v-3.61h3.62v3.61zm-5.06 13l-2.56-2.56 2.56-2.55 2.55 2.55zm-2.03-28.77l2.5-2.5 2.5 2.5-2.5 2.5zm-12.79 32.03h3.62v3.62h-3.62zm1.8-16.22h-16.26a1.8 1.8 0 1 1 0-3.61h14.46v-18.12a1.8 1.8 0 1 1 3.62 0v19.93c0 1-.81 1.8-1.81 1.8zm-16.5-15.72l2.55-2.56 2.56 2.56-2.56 2.55zm4.76 26.22l-2.5 2.5-2.5-2.5 2.5-2.5z"/></defs><g><g transform="translate(-761 -2679)"><use fill="#c88c54" xlink:href="#xrwma"/><use fill="#0086f8" xlink:href="#xrwma"/></g></g></svg>