<svg xmlns="http://www.w3.org/2000/svg" xmlns:xlink="http://www.w3.org/1999/xlink" width="61" height="60" viewBox="0 0 61 60"><defs><path id="h427a" d="M1076.18 2734.77c-1.85 0-3.66-.17-5.4-.46l-12.68 7.69v-12.8c-6.6-4.63-10.84-11.74-10.84-19.73 0-13.97 12.95-25.3 28.92-25.3 15.96 0 28.91 11.33 28.91 25.3s-12.95 25.3-28.91 25.3zm0-46.98c-13.98 0-25.3 9.7-25.3 21.68 0 7.35 4.27 13.83 10.8 17.75l-.12 8.39 8.5-5.12c1.97.42 4 .67 6.12.67 13.97 0 25.3-9.71 25.3-21.69s-11.33-21.68-25.3-21.68zm14.45 25.3a3.61 3.61 0 1 1 0-7.23 3.61 3.61 0 0 1 0 7.23zm-14.45 0a3.61 3.61 0 1 1 0-7.23 3.61 3.61 0 0 1 0 7.23zm-14.46 0a3.61 3.61 0 1 1 0-7.23 3.61 3.61 0 0 1 0 7.23z"/></defs><g><g transform="translate(-1046 -2683)"><use fill="#c88c54" xlink:href="#h427a"/><use fill="#0086f8" xlink:href="#h427a"/></g></g></svg>