<?xml version="1.0" encoding="iso-8859-1"?>
<!-- Generator: Adobe Illustrator 16.0.0, SVG Export Plug-In . SVG Version: 6.00 Build 0)  -->
<!DOCTYPE svg PUBLIC "-//W3C//DTD SVG 1.1//EN" "http://www.w3.org/Graphics/SVG/1.1/DTD/svg11.dtd">
<svg xmlns="http://www.w3.org/2000/svg" xmlns:xlink="http://www.w3.org/1999/xlink" version="1.1" id="Capa_1" x="0px" y="0px" width="512px" height="512px" viewBox="0 0 374.715 374.715" style="enable-background:new 0 0 374.715 374.715;" xml:space="preserve">
<g>
	<g>
		<g id="Layer_5_76_">
			<g>
				<g>
					<path d="M331.877,7c0-3.851-3.149-7-7-7h-26.695c-3.853,0-7,3.149-7,7v9.964c0,3.85,3.147,7,7,7h26.694c3.851,0,7-3.15,7-7       L331.877,7L331.877,7z" fill="#ff9400"/>
				</g>
				<g>
					<path d="M291.18,286.169c0,3.851-3.149,7-7,7H11.951c-3.85,0-7,3.149-7,7v26.694c0,3.852,3.15,7,7,7c0,0,253.297,0,300.859,0       c13.5,0,19.063-6.883,19.063-21.047c0-5.086,0-13.082,0-13.082v-194.2c0-3.85-3.147-7-7-7h-26.695c-3.85,0-7,3.15-7,7       L291.18,286.169L291.18,286.169z" fill="#ff9400"/>
				</g>
				<g>
					<path d="M42.838,367.715c0,3.851,3.15,7,7,7h26.694c3.85,0,7-3.149,7-7v-9.965c0-3.85-3.15-7-7-7H49.838c-3.85,0-7,3.15-7,7       V367.715z" fill="#ff9400"/>
				</g>
				<g>
					<path d="M63.582,40.85c-16.271,0-20.743,5.839-20.743,20.714c0,53.664,0,207.838,0,207.838c0,3.85,3.15,7,7,7h26.694       c3.85,0,7-3.15,7-7V88.545c0-3.851,3.15-7,7-7h272.23c3.851,0,7-3.149,7-7V47.85c0-3.851-3.149-7-7-7       C362.764,40.85,68.352,40.85,63.582,40.85z" fill="#ff9400"/>
				</g>
			</g>
		</g>
	</g>
</g>
<g>
</g>
<g>
</g>
<g>
</g>
<g>
</g>
<g>
</g>
<g>
</g>
<g>
</g>
<g>
</g>
<g>
</g>
<g>
</g>
<g>
</g>
<g>
</g>
<g>
</g>
<g>
</g>
<g>
</g>
</svg>
