<?xml version="1.0" encoding="iso-8859-1"?>
<!-- Generator: Adobe Illustrator 18.0.0, SVG Export Plug-In . SVG Version: 6.00 Build 0)  -->
<!DOCTYPE svg PUBLIC "-//W3C//DTD SVG 1.1//EN" "http://www.w3.org/Graphics/SVG/1.1/DTD/svg11.dtd">
<svg xmlns="http://www.w3.org/2000/svg" xmlns:xlink="http://www.w3.org/1999/xlink" version="1.1" id="Capa_1" x="0px" y="0px" viewBox="0 0 328.821 328.821" style="enable-background:new 0 0 328.821 328.821;" xml:space="preserve" width="512px" height="512px">
<g>
	<path d="M316.465,255.787h-55.664c1.449-9.15,2.898-18.3,4.348-27.449l8.798,1.783c0.407,0.083,0.817,0.123,1.228,0.123   c1.26,0,2.501-0.386,3.549-1.121c1.388-0.974,2.314-2.475,2.563-4.152l6.603-44.612c0.479-3.249-1.665-6.308-4.885-6.959   l-8.869-1.796c0.566-3.576,1.133-7.152,1.699-10.728c12.066-75.599-65.302-123.948-132.125-124.273   c-4.131-0.021-6.199-0.021-10.331,0C66.557,36.928-10.816,85.278,1.254,160.876c6.637,41.902,13.271,83.809,19.91,125.71h234.759   c0.321-2.029,0.643-4.059,0.964-6.088h47.237c0.323,6.536,5.724,11.736,12.341,11.736c6.824,0,12.355-5.531,12.355-12.355v-11.736   C328.821,261.318,323.289,255.787,316.465,255.787z M138.543,250.949c-44.356,0-80.312-35.96-80.312-80.309   c0-44.356,35.956-80.314,80.312-80.314c44.356,0,80.312,35.958,80.312,80.314C218.855,214.989,182.9,250.949,138.543,250.949z" fill="#ff9400"/>
	<polygon points="119.016,135.345 108.578,135.345 87.266,149.817 94.196,159.987 104.985,152.711 104.985,191.565 93.694,191.565    93.694,203.845 131.543,203.845 131.543,191.565 119.016,191.565  " fill="#ff9400"/>
	<path d="M163.748,134.292c-14.912,0-22.365,8.682-22.365,20.523v29.646c0,11.84,7.453,20.521,22.365,20.521   c14.908,0,22.364-8.681,22.364-20.521v-29.646C186.113,142.974,178.657,134.292,163.748,134.292z M172.078,184.284   c0,4.997-2.543,8.418-8.156,8.418h-0.352c-5.611,0-8.156-3.421-8.156-8.418v-29.295c0-4.998,2.545-8.418,8.156-8.418h0.352   c5.613,0,8.156,3.42,8.156,8.418V184.284z" fill="#ff9400"/>
</g>
<g>
</g>
<g>
</g>
<g>
</g>
<g>
</g>
<g>
</g>
<g>
</g>
<g>
</g>
<g>
</g>
<g>
</g>
<g>
</g>
<g>
</g>
<g>
</g>
<g>
</g>
<g>
</g>
<g>
</g>
</svg>
