<?xml version="1.0" standalone="no"?>
<!DOCTYPE svg PUBLIC "-//W3C//DTD SVG 20010904//EN"
 "http://www.w3.org/TR/2001/REC-SVG-20010904/DTD/svg10.dtd">
<svg version="1.0" xmlns="http://www.w3.org/2000/svg"
 width="126.000000pt" height="126.000000pt" viewBox="0 0 126.000000 126.000000"
 preserveAspectRatio="xMidYMid meet">
<metadata>
Created by potrace 1.11, written by Peter Selinger 2001-2013
</metadata>
<g transform="translate(0.000000,126.000000) scale(0.100000,-0.100000)"
fill="#000000" stroke="none">
<path d="M280 975 c-261 -261 -274 -276 -257 -292 16 -17 31 -4 294 259 240
240 275 279 264 292 -8 9 -16 16 -20 16 -3 0 -130 -124 -281 -275z"/>
<path d="M680 1235 c-12 -14 18 -48 261 -291 243 -243 275 -272 289 -259 13
14 -16 46 -261 291 -245 245 -277 274 -289 259z"/>
<path d="M505 1060 l-120 -120 120 -120 120 -120 120 120 120 120 -120 120
-120 120 -120 -120z"/>
<path d="M195 750 l-120 -120 123 -123 122 -122 122 122 123 123 -120 120
c-66 66 -122 120 -125 120 -3 0 -59 -54 -125 -120z"/>
<path d="M811 750 l-113 -120 112 -120 c62 -66 118 -120 125 -120 13 0 235
227 235 240 0 12 -222 240 -234 240 -7 0 -63 -54 -125 -120z"/>
<path d="M20 575 c-12 -14 21 -50 261 -291 240 -240 275 -272 288 -259 13 13
-18 48 -255 287 -148 150 -272 274 -275 276 -3 1 -12 -5 -19 -13z"/>
<path d="M931 314 c-225 -227 -270 -278 -261 -290 7 -8 18 -13 24 -12 6 0 132
124 280 274 233 236 268 275 256 288 -7 9 -16 16 -20 16 -4 0 -130 -124 -279
-276z"/>
<path d="M505 440 l-120 -120 120 -120 120 -120 120 120 120 120 -120 120
-120 120 -120 -120z"/>
</g>
</svg>
