<svg xmlns="http://www.w3.org/2000/svg" viewBox="0 0 445.951 147.671"><defs><style>.cls-1{fill:#f7931e;}.cls-2{fill:#0071bc;}</style></defs><title>Ресурс 2</title><g id="Слой_2" data-name="Слой 2"><g id="Слой_1-2" data-name="Слой 1"><rect class="cls-1" x="53.362" y="16.586" width="40.95" height="40.95" transform="translate(-4.58 63.066) rotate(-45)"/><rect class="cls-2" x="90.132" y="53.364" width="40.95" height="40.95" transform="translate(-19.816 99.838) rotate(-45)"/><rect class="cls-2" x="16.589" y="53.362" width="40.95" height="40.95" transform="translate(-41.355 47.834) rotate(-45)"/><rect class="cls-1" x="53.362" y="90.137" width="40.95" height="40.95" transform="translate(-56.588 84.608) rotate(-45)"/><rect class="cls-1" x="109.916" y="-11.586" width="5.732" height="92.953" transform="translate(8.362 89.968) rotate(-45)"/><rect class="cls-2" x="66.303" y="109.914" width="92.953" height="5.732" transform="translate(-46.715 112.78) rotate(-45)"/><rect class="cls-2" x="-11.586" y="32.024" width="92.953" height="5.732" transform="translate(-14.452 34.89) rotate(-45)"/><rect class="cls-1" x="32.026" y="66.299" width="5.732" height="92.953" transform="translate(-69.525 57.704) rotate(-45)"/><path class="cls-2" d="M170.648,71.1a1.758,1.758,0,0,0-1.933-1.933h-3.777V55.987h15.021c4.48,0,6.413,1.933,6.413,6.413V80.232h2.108c2.2,0,3.777,0,4.831-1.933l10.629-22.312h17.13L208.509,81.374c-2.108,4.3-4.656,5.446-4.656,5.446V87s2.635.615,4.832,5.007l5.71,11.6c.878,1.845,2.547,2.021,4.3,2.021h1.669V118.8h-9.224c-4.392,0-6.939-.7-8.872-4.656l-9.4-18.8c-1.054-2.021-2.9-2.021-5.271-2.021h-1.23V118.8H170.648Z"/><path class="cls-2" d="M250.234,90.6h.615v-.791c0-4.3-2.02-5.886-5.8-5.886-1.933,0-3.953.439-3.953,2.2v2.021H227.043V83.131c0-10.014,12.825-10.629,17.481-10.629,16.339,0,21.522,7.73,21.522,18.448v13.177a1.758,1.758,0,0,0,1.933,1.933h3.338V118.8H258.141c-4.393,0-5.974-2.723-5.974-4.744v-.791h-.176s-3.865,6.588-13.177,6.588c-8.521,0-14.846-5.534-14.846-13.7C223.969,91.827,243.294,90.6,250.234,90.6Zm-6.94,17.92c4.3,0,7.73-4.3,7.73-7.994v-1.23h-1.669c-4.832,0-10.366,1.493-10.366,5.271A3.976,3.976,0,0,0,243.294,108.518Z"/><path class="cls-2" d="M276.586,70.656a1.758,1.758,0,0,0-1.933-1.933h-3.338V55.987h14.055c4.48,0,6.413,1.933,6.413,6.413v41.727a1.758,1.758,0,0,0,1.933,1.933h3.338V118.8H283c-4.48,0-6.413-1.933-6.413-6.413Z"/><path class="cls-2" d="M324.2,72.5c13.352,0,20.907,9.312,20.907,21.874a43.055,43.055,0,0,1-.351,4.744H316.2c1.142,5.534,5.71,8.082,10.542,8.082,4.48,0,8.785-2.108,12.474-4.568l5.622,10.629c-4.919,4.216-12.386,6.588-19.326,6.588-16.163,0-24.86-11.684-24.86-23.718C300.655,82.867,309.615,72.5,324.2,72.5Zm5.885,17.92c0-3.689-2.372-6.764-6.237-6.764-4.392,0-6.5,3.162-7.291,6.764Z"/><path class="cls-2" d="M351.253,87.7a1.817,1.817,0,0,0-1.933-1.405h-1.142V73.555h9.663c3.25,0,5.359,1.318,6.149,3.689l6.852,20.38a57.421,57.421,0,0,1,1.669,7.291h.176a57.382,57.382,0,0,1,1.669-7.291l6.764-20.38c.791-2.372,3.074-3.689,6.237-3.689h8.872V86.293h-1.142a2.016,2.016,0,0,0-2.108,1.405l-11.508,31.1H362.936Z"/><path class="cls-2" d="M424.868,90.6h.615v-.791c0-4.3-2.02-5.886-5.8-5.886-1.933,0-3.953.439-3.953,2.2v2.021H401.677V83.131c0-10.014,12.825-10.629,17.481-10.629,16.339,0,21.522,7.73,21.522,18.448v13.177a1.758,1.758,0,0,0,1.933,1.933h3.338V118.8H432.774c-4.393,0-5.974-2.723-5.974-4.744v-.791h-.176s-3.865,6.588-13.177,6.588c-8.521,0-14.846-5.534-14.846-13.7C398.6,91.827,417.928,90.6,424.868,90.6Zm-6.939,17.92c4.3,0,7.73-4.3,7.73-7.994v-1.23h-1.669c-4.832,0-10.366,1.493-10.366,5.271A3.976,3.976,0,0,0,417.928,108.518Z"/><path class="cls-2" d="M175.972,20.216c6.507,0,11.764,4.783,11.764,11.376a11.746,11.746,0,0,1-23.485,0C164.251,25,169.466,20.216,175.972,20.216Zm0,19.219a7.533,7.533,0,0,0,7.5-7.843,7.5,7.5,0,1,0-15,0A7.559,7.559,0,0,0,175.972,39.434Z"/><path class="cls-2" d="M192.821,25.257a.844.844,0,0,0-.948-.948h-1.767V20.733h4.137c1.939,0,2.758.818,2.758,2.758v5.817h1.81a2.548,2.548,0,0,0,2.284-.991l5.214-7.584h4.7l-5.99,8.661a4.3,4.3,0,0,1-1.638,1.637v.086a3.812,3.812,0,0,1,1.638,1.637L208.2,38.1c.431.689.819.862,1.9.862h1.292v3.577h-3.016c-2.025,0-2.715-.345-3.62-2.025l-3.878-6.765c-.474-.776-1.207-.862-2.111-.862H197v9.652h-4.18Z"/><path class="cls-2" d="M215.788,25.257a.844.844,0,0,0-.948-.948h-1.767V20.733h4.137c1.939,0,2.758.818,2.758,2.758v6.162H231V20.733h4.18V38.012a.843.843,0,0,0,.948.948h1.724v3.577h-4.093c-1.939,0-2.758-.819-2.758-2.758V33.143H219.969v9.394h-4.18Z"/><path class="cls-2" d="M253.234,28.963h.948v-.3c0-3.749-1.465-5.128-4.826-5.128-1.034,0-3.577.258-3.577,1.681v1.25h-3.964v-2.2c0-3.49,5.473-4.051,7.455-4.051,7.2,0,9.092,3.663,9.092,8.532v9.265a.843.843,0,0,0,.948.948h1.767v3.577h-3.964c-1.939,0-2.671-.948-2.671-2.5,0-.776.043-1.293.043-1.293H254.4a7.638,7.638,0,0,1-7.024,4.309c-3.792,0-7.325-2.284-7.325-6.463C240.049,29.265,249.572,28.963,253.234,28.963Zm-4.912,10.773c3.62,0,5.86-3.706,5.86-6.937V31.98h-1.12c-3.146,0-8.834.3-8.834,4.223C244.228,37.969,245.607,39.736,248.322,39.736Z"/></g></g></svg>